<?xml version="1.0" standalone="no"?>
<!DOCTYPE svg PUBLIC "-//W3C//DTD SVG 20010904//EN"
 "http://www.w3.org/TR/2001/REC-SVG-20010904/DTD/svg10.dtd">
<svg version="1.0" xmlns="http://www.w3.org/2000/svg"
 width="408.000000pt" height="612.000000pt" viewBox="0 0 408.000000 612.000000"
 preserveAspectRatio="xMidYMid meet">

<g transform="translate(0.000000,612.000000) scale(0.100000,-0.100000)"
fill="#000000" stroke="none">
<path d="M2458 5581 c33 -21 59 -29 32 -10 -12 8 -12 10 -1 7 8 -2 16 -14 18
-26 l3 -22 -39 20 c-25 12 -42 16 -46 10 -4 -6 -12 -4 -21 5 -22 21 -37 19
-31 -6 5 -18 2 -20 -16 -15 -49 14 -144 19 -151 7 -4 -6 -26 -11 -49 -11 -37
0 -173 -35 -232 -60 -11 -5 -37 -14 -57 -21 -21 -7 -38 -16 -38 -20 0 -3 -58
-57 -130 -119 -71 -61 -130 -116 -130 -121 0 -5 -22 -37 -48 -72 -27 -34 -59
-79 -72 -100 -30 -50 -34 -135 -10 -197 9 -25 23 -67 30 -95 7 -27 19 -72 27
-100 8 -31 11 -70 8 -103 -5 -43 -2 -59 14 -86 31 -50 27 -61 -14 -36 -33 21
-37 21 -60 6 -24 -15 -37 -45 -14 -31 6 4 9 -2 8 -17 -4 -47 1 -68 15 -62 8 3
16 -2 19 -13 4 -15 5 -14 6 4 1 30 33 20 55 -18 16 -28 17 -32 2 -48 -20 -22
-20 -29 1 -33 21 -4 27 -58 6 -58 -19 0 -16 -17 8 -41 15 -15 19 -28 15 -47
-5 -21 -4 -24 4 -12 9 12 11 9 7 -13 -4 -26 2 -56 24 -112 4 -11 10 -49 13
-85 12 -129 58 -264 127 -372 26 -39 31 -60 34 -120 5 -102 56 -238 104 -274
8 -6 19 -26 25 -45 7 -20 18 -34 27 -34 15 0 62 -31 93 -60 34 -33 85 -63 111
-67 17 -3 25 -3 18 -1 -7 2 -10 10 -7 18 6 14 -38 62 -97 107 -20 14 -36 33
-36 42 0 8 4 13 8 11 12 -8 39 6 39 21 0 18 36 21 140 9 35 -4 63 -13 77 -27
12 -11 26 -18 31 -15 5 4 8 -3 7 -14 -1 -11 -8 -24 -15 -29 -16 -10 -15 -12
24 -28 26 -12 35 -10 89 18 185 95 405 307 442 428 3 12 10 22 14 22 16 0 29
-68 20 -107 -31 -139 -65 -241 -114 -341 -139 -281 -391 -1104 -540 -1762 -31
-135 -58 -253 -61 -263 -5 -17 -20 -18 -182 -16 -129 1 -202 -3 -267 -15 -90
-17 -223 -20 -246 -6 -9 6 -6 71 15 291 14 156 38 417 52 579 36 426 88 847
128 1045 8 39 20 108 26 155 18 134 52 343 58 360 13 35 -29 -14 -62 -73 -34
-61 -67 -91 -181 -167 -27 -18 -58 -40 -67 -48 -18 -15 -68 -37 -220 -97 -47
-18 -122 -51 -165 -73 -43 -22 -96 -42 -119 -46 -22 -3 -73 -19 -113 -36 -41
-16 -106 -39 -145 -51 -39 -12 -91 -32 -116 -45 -25 -13 -55 -24 -68 -24 -53
0 -105 -91 -117 -205 -4 -42 -15 -83 -27 -103 -17 -27 -18 -38 -10 -58 10 -20
8 -27 -11 -46 -17 -17 -26 -44 -35 -108 -10 -62 -21 -96 -41 -125 -15 -22 -35
-59 -46 -83 -16 -38 -17 -49 -6 -93 l13 -50 -39 -42 c-26 -28 -55 -80 -87
-156 -26 -62 -58 -131 -72 -152 -24 -38 -24 -43 -24 -259 l0 -220 29 0 c17 0
33 5 36 10 11 18 84 50 114 50 17 0 45 -7 63 -15 82 -36 222 -87 256 -91 l37
-6 -25 21 c-14 11 -59 37 -100 57 -41 20 -85 46 -98 57 -17 16 -42 22 -105 27
-79 6 -150 31 -128 45 20 12 12 26 -8 15 -49 -26 -56 1 -8 30 37 23 72 27 61
8 -5 -9 -3 -9 9 1 13 10 34 12 94 5 43 -4 101 -8 129 -8 35 -1 58 -7 71 -19
11 -9 24 -17 29 -17 6 0 39 -21 75 -46 35 -25 102 -64 149 -87 47 -22 87 -43
90 -47 8 -9 111 -38 165 -45 55 -8 135 -42 135 -57 0 -6 -9 -8 -21 -5 -11 3
-19 1 -17 -5 2 -5 6 -8 9 -6 3 2 13 -5 23 -15 10 -9 28 -17 42 -17 25 0 30 -9
15 -25 -4 -6 -31 -68 -59 -140 -46 -117 -92 -295 -92 -357 0 -40 -12 -49 -55
-40 -30 6 -41 14 -45 31 -5 23 -10 24 -85 26 -44 1 -98 7 -120 13 -22 6 -58
14 -80 18 -22 3 -44 8 -48 11 -13 8 -137 34 -177 37 -36 3 -159 -17 -218 -36
-43 -13 -51 -5 -59 60 -5 49 -5 51 28 71 19 11 68 28 109 36 97 21 142 37 148
54 3 10 -22 12 -137 8 -79 -3 -143 -1 -147 4 -3 5 -12 5 -22 0 -19 -10 -57 10
-44 24 4 5 1 5 -5 1 -10 -5 -13 -79 -13 -312 l0 -304 2040 0 2040 0 -2 1332
-3 1333 -63 22 c-35 13 -82 36 -105 51 -37 26 -239 124 -340 166 -21 8 -77 41
-125 72 -93 61 -177 104 -203 104 -37 0 -245 205 -291 287 -30 54 -60 79 -78
68 -6 -3 -14 5 -20 19 -7 20 -4 38 17 83 14 32 41 108 60 168 19 61 43 119 53
130 10 11 21 35 25 53 4 18 13 36 21 39 11 4 13 14 9 34 -4 16 0 39 8 56 9 16
13 41 10 57 -5 24 0 34 33 61 37 32 38 34 22 52 -17 18 -16 21 8 56 26 38 28
39 82 39 36 0 42 16 14 42 -18 15 -21 14 -63 -19 -41 -33 -44 -33 -47 -14 -2
12 6 32 19 46 16 16 18 22 8 18 -19 -7 -36 25 -19 35 17 11 30 70 30 140 0 46
8 86 27 135 15 40 26 88 25 113 -1 35 2 42 18 42 17 0 19 7 15 71 -2 46 -9 77
-19 88 -9 10 -16 27 -16 40 0 12 -6 24 -14 27 -8 3 -17 20 -21 37 -4 18 -9 37
-10 44 -2 7 -10 27 -19 44 -9 18 -16 36 -16 42 0 5 -11 18 -25 29 -14 11 -25
26 -25 34 0 8 -7 17 -15 20 -8 4 -12 10 -9 15 3 5 0 8 -8 7 -7 -2 -16 -10 -20
-18 -5 -12 -8 -10 -14 8 -3 12 -13 22 -20 22 -8 0 -14 4 -14 9 0 17 -93 81
-111 76 -18 -6 -69 13 -69 27 0 4 -5 8 -10 8 -6 0 -23 9 -38 20 -15 10 -40 21
-55 24 -15 3 -57 23 -92 45 -35 22 -76 43 -92 47 -15 3 -37 8 -48 11 -12 3 -7
-4 13 -16z m417 -191 c10 -11 16 -20 13 -20 -3 0 -13 9 -23 20 -10 11 -16 20
-13 20 3 0 13 -9 23 -20z m-445 -411 c14 1 45 -3 70 -8 25 -6 68 -12 97 -15
28 -2 60 -9 71 -15 11 -6 22 -8 25 -5 6 6 73 -32 112 -63 29 -24 54 -101 36
-113 -7 -4 -8 -17 -2 -36 4 -16 6 -35 3 -43 -5 -16 18 -91 33 -107 6 -6 17
-13 25 -16 17 -5 25 -135 10 -171 -7 -19 -9 -16 -9 16 -1 21 -5 36 -10 32 -5
-3 -12 5 -14 17 -2 13 -5 5 -6 -18 -1 -27 -6 -41 -15 -41 -8 0 -11 8 -8 19 2
10 -1 18 -7 18 -7 0 -9 -4 -6 -10 12 -19 -2 -10 -44 30 -23 22 -48 40 -54 39
-7 -1 -21 -1 -32 0 -17 1 -18 3 -5 11 8 5 10 10 5 10 -6 0 -17 -6 -24 -12 -8
-8 -15 -9 -17 -3 -5 14 -120 6 -151 -10 -29 -15 -40 -45 -17 -45 9 0 13 -4 10
-9 -4 -5 2 -7 12 -4 10 2 49 -4 87 -14 39 -10 82 -18 97 -18 16 1 25 -2 20 -6
-4 -4 -63 -9 -132 -11 -116 -4 -130 -6 -191 -36 -56 -27 -78 -32 -139 -32 -53
0 -71 3 -67 13 4 13 -50 40 -64 31 -5 -3 -9 0 -9 6 0 6 -4 8 -10 5 -5 -3 -10
-2 -10 3 0 5 -41 15 -90 22 -50 7 -89 14 -88 15 2 2 26 5 53 6 55 4 75 16 67
38 -4 10 0 13 16 9 28 -8 28 8 1 23 -15 7 -19 8 -15 0 5 -7 1 -9 -8 -5 -9 3
-14 9 -11 13 2 4 -1 8 -8 8 -7 0 -50 3 -97 7 l-86 7 -43 -40 c-47 -44 -66 -44
-57 -2 3 14 3 20 0 14 -8 -18 -24 -16 -24 2 0 8 -4 15 -10 15 -5 0 -10 -14
-10 -31 0 -17 -4 -28 -10 -24 -5 3 -10 -2 -10 -12 0 -12 -8 -19 -20 -20 -14
-1 -20 4 -20 18 0 22 30 60 42 53 4 -3 8 -1 8 5 0 5 -4 11 -10 13 -5 2 -7 13
-4 25 4 13 10 21 14 18 4 -3 13 2 20 10 7 8 18 15 25 15 15 0 35 72 28 100 -3
11 1 28 8 37 10 12 11 15 1 9 -31 -18 17 97 60 144 62 69 190 113 322 112 45
0 97 3 116 8 19 4 60 5 90 3 30 -3 66 -5 80 -4z m-921 -598 c38 -48 41 -74 5
-37 -15 14 -29 26 -33 26 -17 1 -31 19 -25 33 9 25 19 21 53 -22z m533 -27
c73 -21 62 -30 -48 -40 -92 -8 -211 -47 -180 -60 11 -4 27 -2 37 5 11 6 31 8
46 5 18 -5 24 -4 19 5 -4 6 -3 11 2 11 5 0 12 -9 15 -20 4 -14 14 -20 34 -20
15 0 52 -3 81 -6 42 -6 52 -4 52 8 0 23 48 10 56 -14 4 -13 -2 -28 -15 -42
-19 -20 -20 -27 -10 -48 9 -21 7 -33 -15 -74 -14 -27 -36 -57 -49 -66 -12 -10
-17 -18 -10 -18 17 0 94 93 88 108 -2 7 4 18 15 24 11 7 20 24 20 38 0 13 12
50 28 82 26 55 28 57 67 57 28 1 36 -2 25 -9 -12 -8 -12 -10 2 -15 19 -8 33
-41 29 -69 -1 -10 2 -15 8 -12 6 4 9 -5 9 -21 -1 -31 31 -100 70 -151 30 -40
70 -59 86 -41 8 9 8 10 -1 5 -16 -9 -81 52 -104 97 -18 34 -18 39 -4 53 20 20
19 34 -5 64 -25 32 -25 41 3 61 29 21 84 15 66 -7 -17 -21 -5 -28 28 -16 15 6
22 11 15 11 -10 1 -10 6 -2 21 14 26 40 26 40 1 0 -29 11 -32 79 -19 49 9 67
9 83 -1 11 -7 43 -12 72 -12 77 0 83 -7 69 -73 -18 -86 -47 -143 -85 -166 -20
-12 -26 -20 -17 -20 42 0 119 123 119 190 0 39 43 21 69 -29 11 -19 11 -25 0
-32 -12 -7 -12 -9 -1 -9 21 0 12 -77 -14 -130 -29 -60 -40 -182 -18 -201 23
-19 10 -82 -40 -192 -25 -58 -128 -173 -145 -163 -4 3 -21 -8 -36 -24 -16 -17
-34 -30 -39 -30 -6 0 -22 -17 -35 -38 -14 -20 -43 -54 -64 -74 -45 -43 -182
-122 -196 -114 -5 4 -11 2 -13 -4 -1 -5 -20 -12 -41 -14 -21 -3 -43 -8 -49
-12 -7 -5 -8 -3 -3 6 6 10 1 12 -19 8 -14 -3 -29 -1 -32 3 -3 5 -17 9 -32 9
-27 1 -66 23 -56 32 3 3 -8 10 -24 16 -30 10 -92 67 -127 117 -11 15 -22 30
-25 34 -3 3 -18 13 -35 21 -128 64 -220 239 -231 440 -4 66 -6 80 -16 80 -4 0
-8 7 -8 16 0 8 5 12 10 9 6 -3 10 -2 10 4 0 5 -4 12 -9 16 -12 7 -12 114 0
136 6 11 5 20 -1 24 -16 10 -12 91 5 105 20 17 29 7 45 -54 16 -58 52 -104 97
-122 18 -8 68 -16 110 -19 l78 -4 -85 13 c-109 17 -143 34 -169 88 -25 53 -44
138 -38 175 4 27 4 27 6 -4 1 -31 21 -49 21 -19 0 8 4 16 10 18 13 4 -14 54
-28 51 -14 -4 -15 -1 -2 31 5 14 18 30 29 36 18 9 23 6 38 -26 10 -21 26 -38
36 -40 17 -2 17 -1 4 14 -18 20 -7 40 33 60 31 15 130 9 212 -14z m736 -14
c13 -9 14 -10 1 -7 -26 8 -46 -9 -33 -30 19 -31 6 -45 -25 -28 -27 13 -179 39
-228 38 -13 -1 -21 3 -18 7 3 5 -1 10 -7 13 -7 2 12 9 42 15 65 13 243 7 268
-8z m-708 -81 c0 -5 -9 -9 -20 -9 -22 0 -23 1 -14 24 5 13 9 14 20 5 8 -6 14
-15 14 -20z m1448 -2891 c14 -14 16 -57 3 -77 -6 -10 -3 -23 11 -41 32 -43 17
-69 -105 -180 l-112 -102 -55 6 c-44 5 -60 3 -80 -11 -14 -10 -54 -23 -90 -30
-36 -6 -81 -15 -100 -19 l-35 -7 30 39 c44 58 48 63 70 87 11 12 19 25 18 29
-2 4 7 15 20 25 12 10 29 27 37 37 13 18 13 19 0 11 -13 -8 -13 -7 0 11 8 10
23 25 33 32 9 7 17 19 17 26 0 15 143 156 158 156 17 0 19 -34 3 -53 -14 -16
-13 -17 5 -11 10 4 46 25 78 46 65 41 76 44 94 26z m-119 -389 c-12 -9 -31
-14 -42 -11 -19 5 -19 7 7 29 23 19 31 21 43 12 13 -11 12 -15 -8 -30z"/>
<path d="M2840 4471 c0 -5 5 -13 10 -16 6 -3 10 -2 10 4 0 5 -4 13 -10 16 -5
3 -10 2 -10 -4z"/>
<path d="M2050 3804 c0 -5 6 -16 13 -24 19 -24 216 -41 358 -31 9 0 19 8 23
16 5 13 2 14 -15 4 -16 -8 -25 -7 -39 6 -15 13 -28 16 -57 10 -62 -11 -124 -6
-155 13 -27 16 -30 16 -60 -1 -29 -17 -32 -17 -49 -1 -11 10 -19 13 -19 8z"/>
<path d="M2561 3701 c-9 -6 -10 -11 -2 -15 13 -8 31 1 31 15 0 11 -11 11 -29
0z"/>
<path d="M2037 3613 c-78 -4 -84 -18 -19 -42 33 -12 42 -20 42 -38 0 -13 3
-22 8 -20 4 1 9 -2 10 -8 6 -15 24 -35 33 -35 4 0 6 21 4 46 l-4 46 87 -7 c48
-3 107 -8 132 -11 127 -15 170 -12 170 11 0 12 -81 28 -130 25 -86 -5 -112 -5
-116 2 -3 4 -26 6 -53 5 -34 -1 -52 3 -65 16 -10 9 -20 16 -24 15 -4 -1 -38
-3 -75 -5z"/>
<path d="M3295 1270 c-10 -11 -16 -22 -14 -24 2 -2 12 7 22 20 22 29 17 32 -8
4z"/>
<path d="M3164 1158 l-19 -23 23 19 c21 18 27 26 19 26 -2 0 -12 -10 -23 -22z"/>
<path d="M3136 973 c-6 -14 -5 -15 5 -6 7 7 10 15 7 18 -3 3 -9 -2 -12 -12z"/>
<path d="M3200 4363 c0 -13 29 -38 35 -31 3 3 -4 13 -15 23 -11 10 -20 13 -20
8z"/>
<path d="M3090 4060 c-9 -6 -10 -10 -3 -10 6 0 15 5 18 10 8 12 4 12 -15 0z"/>
<path d="M13 883 c-9 -3 -13 -35 -13 -111 l0 -106 40 39 40 39 141 -2 c77 -1
145 -4 150 -7 5 -4 9 1 9 9 0 9 5 16 10 16 6 0 10 4 10 9 0 18 -92 61 -143 67
-29 4 -57 11 -63 15 -19 15 -160 40 -181 32z"/>
</g>
</svg>
